<?xml version="1.0" standalone="no"?><!DOCTYPE svg PUBLIC "-//W3C//DTD SVG 1.1//EN" "http://www.w3.org/Graphics/SVG/1.1/DTD/svg11.dtd"><svg t="1747224583543" class="icon" viewBox="0 0 1024 1024" version="1.1" xmlns="http://www.w3.org/2000/svg" p-id="5850" xmlns:xlink="http://www.w3.org/1999/xlink" width="200" height="200"><path d="M256 921.6v-51.2h230.4v-102.4H102.4c-28.2624 0-51.2-24.832-51.2-55.4496V157.8496C51.2 127.232 74.1376 102.4 102.4 102.4h819.2c28.2624 0 51.2 24.832 51.2 55.4496v554.7008c0 30.6176-22.9376 55.4496-51.2 55.4496h-384v102.4H768v51.2H256zM921.6 153.6H102.4v563.2h819.2V153.6z m-382.1568 143.872l47.5136 18.9952-102.4 256-47.5136-18.9952 102.4-256z m171.52 28.8768l108.544 108.6464-108.544 108.5952-36.2496-36.1984 72.448-72.3968-72.448-72.448 36.2496-36.1984z m-397.568 0l36.1984 36.1984-72.3968 72.448L349.5936 507.392l-36.1984 36.1984L204.8 434.9952l108.5952-108.6464z" p-id="5851"></path></svg>