<?xml version="1.0" standalone="no"?><!DOCTYPE svg PUBLIC "-//W3C//DTD SVG 1.1//EN" "http://www.w3.org/Graphics/SVG/1.1/DTD/svg11.dtd"><svg t="1747224606741" class="icon" viewBox="0 0 1024 1024" version="1.1" xmlns="http://www.w3.org/2000/svg" p-id="6974" xmlns:xlink="http://www.w3.org/1999/xlink" width="200" height="200"><path d="M510.506667 563.84a5.546667 5.546667 0 0 1 1.493333 3.626667v88.32a10.88 10.88 0 0 1-3.2 7.68L426.666667 746.666667l83.2 83.2a10.453333 10.453333 0 0 1 3.2 7.68v88.32a5.333333 5.333333 0 0 1-5.333334 5.333333 5.333333 5.333333 0 0 1-3.84-1.706667l-175.36-175.36a10.666667 10.666667 0 0 1 0-14.933333l175.36-175.36a5.333333 5.333333 0 0 1 6.613334 0z m258.986666 0a5.333333 5.333333 0 0 1 7.68 0l175.36 175.36a10.666667 10.666667 0 0 1 0 14.933333l-175.36 175.36a5.333333 5.333333 0 0 1-3.84 1.706667 5.333333 5.333333 0 0 1-5.333333-5.333333v-88.32a10.453333 10.453333 0 0 1 3.2-7.68l83.2-83.2-83.2-83.2a10.88 10.88 0 0 1-3.2-7.68V567.466667a5.546667 5.546667 0 0 1 1.493333-3.626667z m-57.813333 65.493333a7.466667 7.466667 0 0 1 7.466667 7.466667 5.333333 5.333333 0 0 1 0 2.56L640 856.96a10.666667 10.666667 0 0 1-10.026667 7.04h-61.653333a7.466667 7.466667 0 0 1-7.466667-7.466667 5.333333 5.333333 0 0 1 0-2.56L640 636.373333a10.666667 10.666667 0 0 1 10.026667-7.04zM928 170.666667a10.666667 10.666667 0 0 1 10.666667 10.666666v362.666667a10.666667 10.666667 0 0 1-10.666667 10.666667h-64a10.666667 10.666667 0 0 1-10.666667-10.666667V490.666667H170.666667v277.333333h74.666666a10.666667 10.666667 0 0 1 10.666667 10.666667v64a10.666667 10.666667 0 0 1-10.666667 10.666666h-149.333333a10.666667 10.666667 0 0 1-10.666667-10.666666v-661.333334a10.666667 10.666667 0 0 1 10.666667-10.666666zM853.333333 256H170.666667v149.333333h682.666666z m-437.333333 32a42.666667 42.666667 0 1 1-42.666667 42.666667 42.666667 42.666667 0 0 1 42.666667-42.666667z m-138.666667 0a42.666667 42.666667 0 1 1-42.666666 42.666667 42.666667 42.666667 0 0 1 42.666666-42.666667z m277.333334 0a42.666667 42.666667 0 1 1-42.666667 42.666667 42.666667 42.666667 0 0 1 42.666667-42.666667z" p-id="6975"></path></svg>