<?xml version="1.0" standalone="no"?><!DOCTYPE svg PUBLIC "-//W3C//DTD SVG 1.1//EN" "http://www.w3.org/Graphics/SVG/1.1/DTD/svg11.dtd"><svg t="1747224568647" class="icon" viewBox="0 0 1024 1024" version="1.1" xmlns="http://www.w3.org/2000/svg" p-id="4707" xmlns:xlink="http://www.w3.org/1999/xlink" width="200" height="200"><path d="M918.208 27.52c7.872 8.576 13.76 18.112 17.728 28.48 3.968 10.368 5.888 21.504 5.888 33.408 0.064 22.592-7.808 43.264-23.616 61.952-18.624 17.152-38.656 25.664-59.904 25.536a56 56 0 0 1-24.576-5.888 93.248 93.248 0 0 1-37.376-19.648c-18.432-18.752-27.648-39.36-27.52-61.952 0-11.776 1.344-22.912 3.968-33.408 6.4-10.624 14.272-20.288 23.552-28.48 16-18.368 36.608-27.52 61.952-27.52l17.664 1.92c17.472 5.248 31.552 13.76 42.24 25.6zM676.48 222.08a27.136 27.136 0 0 0-5.888 16.64 41.472 41.472 0 0 0 1.92 12.8 23.168 23.168 0 0 1 3.968 7.936c6.272 3.776 12.48 5.76 18.688 5.888a31.168 31.168 0 0 0 18.624-5.888 33.152 33.152 0 0 0 7.872-20.672 23.68 23.68 0 0 0-7.872-16.704 32.128 32.128 0 0 0-7.808-5.888 33.28 33.28 0 0 0-10.88-1.984H687.36a18.496 18.496 0 0 0-10.816 7.872z m-21.632-21.632a51.648 51.648 0 0 1 40.32-17.664c10.816 0 21.632 2.56 32.448 7.872a33.408 33.408 0 0 1 9.792 9.792l5.888 3.968c6.848 10.944 10.112 23.04 9.856 36.352a54.592 54.592 0 0 1-15.744 40.32 51.328 51.328 0 0 1-42.24 19.584 49.92 49.92 0 0 1-40.32-19.648c-3.904-1.28-6.528-3.2-7.808-5.888a57.984 57.984 0 0 1-9.856-34.368v-17.728a65.92 65.92 0 0 1 17.664-22.592z m172.992-139.52a37.184 37.184 0 0 0-11.84 26.56 43.52 43.52 0 0 0 11.84 28.48 42.24 42.24 0 0 0 26.496 11.776h3.968a36.992 36.992 0 0 0 26.496-11.776c6.4-8.832 9.664-18.304 9.856-28.48a41.344 41.344 0 0 0-9.856-26.56L873.024 55.04a32.256 32.256 0 0 0-14.72-5.888 46.08 46.08 0 0 0-30.464 11.776z m21.632 311.488l-19.712 14.72v527.744C806.4 987.52 764.416 1023.936 704 1023.936h-2.944c-60.8-3.84-104.96-39.872-132.672-108.096V389.12l-21.632-21.632v-38.272l13.76-10.88h268.288l20.672 17.728v36.352z m-237.824 42.24v500.224c16.96 38.592 48.128 61.824 93.312 69.76 37.376-5.376 65.216-28.608 83.52-69.76V414.656H611.648z m22.592 171.008h129.664l1.024 0.96v308.608c-9.28 37.44-31.936 56.128-67.84 56-27.968-2.496-49.28-20.8-63.808-55.04V586.624l0.96-0.96zM260.8 178.816h249.6l1.024 1.024v74.688l-1.024 0.96h-10.816v232.96l47.168 85.44v114.944l-0.96 1.024-95.36-188.672V277.12H314.88v223.04l-198.528 403.84c-4.608 16.512-3.584 29.952 2.944 40.32 7.296 12.16 21.696 20.288 43.264 24.576h410.752l54.08 53.12-1.024 1.92H158.592c-63.552-21.12-92.736-60.8-87.424-118.912 0-7.808 0.64-16.32 1.92-25.536l200.512-391.104V255.488h-12.8l-0.96-0.96V179.84l0.96-1.024z m220.16 503.168l67.84 127.744v111.04l-309.632 0.96h-3.904c-29.696-6.592-42.432-24.64-38.336-54.016a58.88 58.88 0 0 0 1.92-13.76l86.528-171.968h195.584z" fill="#666666" p-id="4708"></path></svg>