<?xml version="1.0" standalone="no"?><!DOCTYPE svg PUBLIC "-//W3C//DTD SVG 1.1//EN" "http://www.w3.org/Graphics/SVG/1.1/DTD/svg11.dtd"><svg t="1747224555590" class="icon" viewBox="0 0 1024 1024" version="1.1" xmlns="http://www.w3.org/2000/svg" p-id="3703" xmlns:xlink="http://www.w3.org/1999/xlink" width="200" height="200"><path d="M80.440889 724.024889s66.048 35.498667 217.031111 2.503111c151.04-32.995556 162.304 24.576 263.964444 17.806222 101.546667-6.826667 163.555556-34.986667 248.32-34.986666 57.571556 0 129.820444 21.845333 135.452445 26.737777 5.688889 4.835556-6.712889 200.192-6.712889 200.192H90.624l-10.183111-212.252444z" fill="#666666" opacity=".5" p-id="3704"></path><path d="M937.585778 272.384l-77.824-149.731556C840.590222 85.788444 793.031111 56.888889 751.502222 56.888889H273.066667c-41.472 0-89.201778 28.672-108.657778 65.365333L86.869333 268.856889C69.973333 300.544 56.888889 353.450667 56.888889 389.347556V881.777778c0 47.104 38.229333 85.390222 85.333333 85.390222h739.555556c47.047111 0 85.333333-38.286222 85.333333-85.333333V392.704c0-35.783111-12.970667-88.689778-29.525333-120.376889zM115.712 299.804444l82.090667-154.965333c10.24-19.342222 39.708444-37.148444 61.724444-37.148444h505.628445c21.845333 0 51.086222 17.806222 61.212444 37.319111l82.261333 158.151111c4.323556 8.817778 7.964444 18.033778 10.865778 27.477333H103.651556a188.871111 188.871111 0 0 1 12.060444-30.833778z m812.259556 597.959112a29.752889 29.752889 0 0 1-29.752889 29.809777H125.724444a29.752889 29.752889 0 0 1-29.696-29.809777v-515.413334c0-2.389333 0.398222-5.461333 0.682667-8.135111h830.293333c0.341333 3.982222 0.967111 8.362667 0.967112 11.832889v511.715556z" fill="#666666" p-id="3705"></path><path d="M311.523556 678.968889c-41.528889 0-73.386667 32.312889-73.386667 74.296889 0 41.927111 31.857778 74.24 73.386667 74.24s73.386667-32.312889 73.386666-74.24c0-45.226667-35.043556-74.296889-73.386666-74.296889z m0 112.526222a37.432889 37.432889 0 0 1-37.831112-38.229333c0-21.617778 16.497778-38.286222 37.831112-38.286222 19.740444 0 37.888 14.961778 37.888 38.286222 0 21.617778-16.497778 38.229333-37.888 38.229333z m459.320888-62.008889H494.478222c-20.024889 0-28.046222 10.183111-28.046222 23.779556 0 13.539556 12.003556 23.722667 28.046222 23.722666h276.366222c20.024889 0 28.046222-10.183111 28.046223-23.722666 0-13.653333-12.060444-23.779556-28.046223-23.779556z m0-222.663111H494.478222c-20.024889 0-28.046222 10.24-28.046222 23.779556 0 13.596444 12.003556 23.779556 28.046222 23.779555h276.366222c20.024889 0 28.046222-10.24 28.046223-23.779555 0-13.596444-12.060444-23.779556-28.046223-23.779556zM280.462222 606.606222a21.162667 21.162667 0 0 1-15.644444-6.883555L204.8 533.731556a21.162667 21.162667 0 1 1 31.288889-28.444445l42.666667 46.819556 99.896888-136.419556a21.162667 21.162667 0 1 1 34.133334 25.031111L297.585778 597.902222a21.162667 21.162667 0 0 1-17.066667 8.647111z" fill="#666666" p-id="3706"></path></svg>