<?xml version="1.0" standalone="no"?><!DOCTYPE svg PUBLIC "-//W3C//DTD SVG 1.1//EN" "http://www.w3.org/Graphics/SVG/1.1/DTD/svg11.dtd"><svg t="1747224514662" class="icon" viewBox="0 0 1024 1024" version="1.1" xmlns="http://www.w3.org/2000/svg" p-id="1594" xmlns:xlink="http://www.w3.org/1999/xlink" width="200" height="200"><path d="M140.544 183.168A42.666667 42.666667 0 0 1 170.666667 170.666667h190.506666l72.661334 109.013333A42.666667 42.666667 0 0 0 469.333333 298.666667h384a42.666667 42.666667 0 0 1 42.666667 42.666666v170.666667a42.666667 42.666667 0 1 0 85.333333 0V341.333333a128 128 0 0 0-128-128h-361.173333L419.541333 104.32A42.666667 42.666667 0 0 0 384.042667 85.333333h-213.333334a128 128 0 0 0-128 128v597.333334a128 128 0 0 0 128 128H576a42.666667 42.666667 0 1 0 0-85.333334H170.709333a42.666667 42.666667 0 0 1-42.666666-42.666666V213.333333a42.666667 42.666667 0 0 1 12.501333-30.165333z m539.264 598.613333c1.152 12.458667-4.053333 25.088-14.933333 31.232a27.946667 27.946667 0 0 0-10.325334 38.570667l14.634667 24.746667c8.064 13.653333 25.514667 18.346667 39.338667 10.538666 11.008-6.186667 24.576-4.352 34.986666 2.858667a153.6 153.6 0 0 0 25.130667 14.165333c11.349333 5.034667 19.669333 15.744 19.669333 28.16 0 15.445333 12.501333 27.946667 27.946667 27.946667h31.488a27.904 27.904 0 0 0 27.946667-27.904c0-12.416 8.32-23.125333 19.626666-28.16 8.832-3.925333 17.28-8.661333 25.173334-14.165333 10.368-7.210667 23.978667-9.045333 34.986666-2.858667a29.098667 29.098667 0 0 0 39.338667-10.538667l14.677333-24.746666a27.946667 27.946667 0 0 0-10.368-38.613334c-10.88-6.144-16.085333-18.773333-14.933333-31.232 0.853333-9.173333 0.853333-18.346667 0-27.52-1.152-12.501333 4.053333-25.173333 14.933333-31.274666a27.989333 27.989333 0 0 0 10.325334-38.656l-14.634667-24.746667a29.098667 29.098667 0 0 0-39.338667-10.538667c-11.008 6.229333-24.661333 4.394667-35.029333-2.858666a153.898667 153.898667 0 0 0-25.173333-14.165334c-11.306667-5.034667-19.626667-15.701333-19.626667-28.117333a27.904 27.904 0 0 0-27.861333-27.904h-31.573334a27.904 27.904 0 0 0-27.904 27.904c0 12.373333-8.277333 23.04-19.626666 28.16a153.514667 153.514667 0 0 0-25.173334 14.165333c-10.368 7.210667-24.021333 9.045333-34.986666 2.816a29.056 29.056 0 0 0-39.338667 10.538667l-14.677333 24.832a27.946667 27.946667 0 0 0 10.325333 38.570667c10.922667 6.144 16.128 18.773333 14.933333 31.232-0.853333 9.173333-0.853333 18.389333 0 27.562666z m178.005333 46.037334a66.901333 66.901333 0 0 1-70.613333-15.36A63.274667 63.274667 0 0 1 768.853333 768c0-16.597333 6.570667-32.512 18.346667-44.458667a66.218667 66.218667 0 0 1 70.613333-15.36c8.192 3.072 15.744 7.765333 22.058667 13.738667a62.762667 62.762667 0 0 1 0 92.16 65.706667 65.706667 0 0 1-22.058667 13.738667z" p-id="1595"></path></svg>