<?xml version="1.0" standalone="no"?><!DOCTYPE svg PUBLIC "-//W3C//DTD SVG 1.1//EN" "http://www.w3.org/Graphics/SVG/1.1/DTD/svg11.dtd"><svg t="1747224530362" class="icon" viewBox="0 0 1024 1024" version="1.1" xmlns="http://www.w3.org/2000/svg" p-id="2608" xmlns:xlink="http://www.w3.org/1999/xlink" width="200" height="200"><path d="M160.413538 583.640615l31.113846 0 4.726154 0 679.148308 0 12.918154 0 13.469538 0c24.497231 0 36.036923-18.156308 25.6-40.329846l-87.473231-185.974154c-10.476308-22.173538-39.069538-40.329846-63.566769-40.329846l-153.363692 0L622.985846 178.333538 622.985846 44.583385c0-24.536615-20.086154-44.583385-44.583385-44.583385l-89.206154 0c-24.536615 0-44.622769 20.046769-44.622769 44.583385l0 133.750154 0 138.673231L285.853538 317.006769c-24.536615 0-53.129846 18.195692-63.566769 40.329846l-87.473231 185.974154C124.337231 565.484308 135.876923 583.640615 160.413538 583.640615L160.413538 583.640615zM880.915692 649.649231 197.710769 649.649231c3.702154 68.765538 2.126769 151.512615-54.941538 200.625231C62.857846 919.000615 89.796923 994.225231 146.471385 1024l115.987692 0c11.421538-15.596308 74.318769-104.684308 92.790154-194.717538 2.875077-18.668308 4.608-31.035077 4.608-31.035077-0.787692 10.279385-2.481231 20.637538-4.608 31.035077C346.427077 886.547692 326.695385 1004.544 312.32 1024l83.928615 0c11.421538-15.596308 74.318769-104.684308 92.790154-194.717538 2.875077-18.668308 4.647385-31.035077 4.647385-31.035077-0.827077 10.279385-2.520615 20.637538-4.647385 31.035077-8.861538 57.265231-28.553846 175.261538-42.968615 194.717538l105.787077 0c11.421538-15.596308 74.318769-104.684308 92.790154-194.717538 2.875077-18.668308 4.647385-31.035077 4.647385-31.035077-0.827077 10.279385-2.520615 20.637538-4.647385 31.035077-8.861538 57.265231-28.553846 175.261538-42.968615 194.717538l106.220308 0c11.421538-15.596308 74.318769-104.684308 92.790154-194.717538 2.875077-18.668308 4.647385-31.035077 4.647385-31.035077-0.827077 10.279385-2.520615 20.637538-4.647385 31.035077-8.861538 57.265231-28.593231 175.261538-42.968615 194.717538l106.850462 0c0 0 70.459077-25.324308 59.470769-106.850462C908.327385 800.886154 902.065231 736.256 880.915692 649.649231L880.915692 649.649231zM880.915692 649.649231" fill="#666666" p-id="2609"></path></svg>