<?xml version="1.0" standalone="no"?><!DOCTYPE svg PUBLIC "-//W3C//DTD SVG 1.1//EN" "http://www.w3.org/Graphics/SVG/1.1/DTD/svg11.dtd"><svg t="1747224618611" class="icon" viewBox="0 0 1024 1024" version="1.1" xmlns="http://www.w3.org/2000/svg" p-id="7961" xmlns:xlink="http://www.w3.org/1999/xlink" width="200" height="200"><path d="M461.0048 88.9856c22.9888-12.2368 50.5344-12.2368 73.472 0l331.3664 176.4864a78.1312 78.1312 0 0 1 41.4208 69.0176v376.2176c0 28.3136-15.36 54.528-40.192 68.3008l-331.264 184.9344a78.55104 78.55104 0 0 1-76.2368 0l-331.264-184.9344a78.2592 78.2592 0 0 1-40.2432-68.2496v-376.32c0-28.9792 15.9232-55.4496 41.472-69.0688l331.4688-176.384z m36.7616 64.8704l-1.9968 0.4608-331.264 176.4864c-1.3824 0.7168-2.2528 2.1504-2.2528 3.6864v376.2176c0 1.536 0.8704 2.9184 2.0992 3.6352l331.3664 184.7808c1.1776 0.6656 2.7648 0.6656 3.9424 0l331.3664-184.832c1.28-0.7168 2.0992-2.0992 2.0992-3.6352V334.4896c0-1.536-0.8192-2.9696-2.1504-3.6864L499.6608 154.3168a4.22912 4.22912 0 0 0-3.84 0l1.9456-0.4608z m248.576 233.1136c9.0624 15.5136 4.0448 35.4304-11.3152 44.8l-0.4608 0.256-203.8784 119.2448 0.0512 234.0352c0.1536 18.176-14.4896 33.024-32.6656 33.1776s-33.024-14.4896-33.1776-32.6656v-233.0112L258.7648 431.9232c-15.4624-9.5744-20.224-29.9008-10.6496-45.312a32.89088 32.89088 0 0 1 43.4688-11.6736l0.4608 0.256 204.1344 119.8592 205.0048-119.8592c15.7184-9.1648 35.84-3.8912 45.056 11.776h0.1024z" p-id="7962"></path></svg>